<svg xmlns="http://www.w3.org/2000/svg" version="1.1" xmlns:xlink="http://www.w3.org/1999/xlink" width="512" height="512" x="0" y="0" viewBox="0 0 512.451 512.451" style="enable-background:new 0 0 512 512" xml:space="preserve" class=""><g><path d="m149.074 454.746-6.527 6.527v-30.187c-.738-19.881-29.269-19.866-30 0v30.187l-6.527-6.527c-14.578-13.537-34.744 6.65-21.213 21.213l32.134 32.134c5.585 5.811 15.628 5.81 21.213 0l32.134-32.134c5.857-5.857 5.857-15.355 0-21.213-5.859-5.857-15.357-5.857-21.214 0zM277.607 454.746l-6.527 6.527v-30.187c-.738-19.881-29.269-19.866-30 0v30.187l-6.527-6.527c-5.857-5.859-15.354-5.857-21.213 0-5.858 5.857-5.858 15.355 0 21.213l32.134 32.134c5.585 5.811 15.628 5.81 21.213 0l32.134-32.134c5.857-5.857 5.857-15.355 0-21.213-5.859-5.857-15.357-5.857-21.214 0zM272.147 192.125c-18.307 0-33.2 18.497-33.2 41.233 1.656 54.618 64.749 54.608 66.4-.001 0-22.735-14.894-41.232-33.2-41.232z" fill="#90bd2d" opacity="1" data-original="#000000" class=""></path><path d="M512.08 241.392c0-45.796-35.447-83.469-80.344-87.025.775-47.76-37.353-87.322-84.812-88.606-31.329-90.931-161.282-84.489-184.051 8.295-56.746-28.916-124.086 20.47-113.626 83.343-65.24 35.935-65.096 132.171 0 167.989-5.587 33.134 12.039 66.832 40.154 81.864 19.938-32.234 69.239-26.166 80.897 9.808h43.03c13.671-41.051 71.848-41.025 85.503 0h43.03c13.527-40.703 71.1-41.141 85.275-.703 52.777-6.082 85.419-66.547 60.402-114.264 15.736-16.174 24.542-37.658 24.542-60.701zm-323.883 40.5c-35.601 47.226-108.191 15.786-107.783-48.534-.001-39.278 28.35-71.233 63.199-71.233 34.581 0 47.133 28.188 47.133 47.134 0 8.284-6.716 15-15 15s-15-6.716-15-15c-1.365-31.259-50.739-18.406-50.332 24.1-.575 33.947 33.842 54.519 53.011 31.611 11.824-16.001 35.374.106 24.772 16.922zm83.95 22.7c-34.849 0-63.2-31.955-63.2-71.233 3.282-94.414 123.129-94.393 126.4.001 0 39.277-28.352 71.232-63.2 71.232zm144.599 18.2c19.881.738 19.866 29.269 0 30h-48.61c-8.284 0-15-6.716-15-15 0-20.278 17.25-31.534 31.111-40.579 6.968-4.547 17.499-11.419 17.499-15.445-.4-11.969-16.746-11.528-19.375-3.522-6.683 18.742-33.883 10.139-28.605-9.023 2.772-9.257 14.422-26.763 38.67-26.763 21.675 0 39.309 17.634 39.309 39.309 0 20.272-17.247 31.526-31.105 40.569l-.697.455h16.803z" fill="#90bd2d" opacity="1" data-original="#000000" class=""></path><path d="m406.14 454.746-6.527 6.527v-30.187c-.738-19.881-29.269-19.866-30 0v30.187l-6.527-6.527c-14.578-13.537-34.744 6.65-21.213 21.213l32.134 32.134c5.585 5.811 15.628 5.81 21.213 0l32.134-32.134c5.857-5.857 5.857-15.355 0-21.213-5.859-5.857-15.357-5.857-21.214 0z" fill="#90bd2d" opacity="1" data-original="#000000" class=""></path></g></svg>