<svg xmlns="http://www.w3.org/2000/svg" version="1.1" xmlns:xlink="http://www.w3.org/1999/xlink" width="512" height="512" x="0" y="0" viewBox="0 0 60 60" style="enable-background:new 0 0 512 512" xml:space="preserve" class=""><g><path d="M43.975 3.183a.926.926 0 0 0-.186-.793A1.041 1.041 0 0 0 42.97 2a1.012 1.012 0 0 0-1 .765 10.085 10.085 0 0 1-3.615 5.794l1.819 1.214a12.22 12.22 0 0 0 3.801-6.59ZM42.1 28.006a.138.138 0 0 0-.138.033 13.643 13.643 0 0 1-7.473 4.038 13.283 13.283 0 0 0-5.229 2.241 8.724 8.724 0 0 0-1.987 2.118c.2.127.409.264.617.416a7.082 7.082 0 0 1 2.846 7.68 6.471 6.471 0 0 1-.974 2.009c2.968 1.173 7.043.03 9.985-2.944 4.539-4.6 3.219-12.375 2.44-15.506a.1.1 0 0 0-.087-.085Z" fill="#90bd2d" opacity="1" data-original="#000000" class=""></path><path d="M26.712 38.467a9.732 9.732 0 0 0-3.762-1.56 10.536 10.536 0 0 1-5.434-2.767c-.563 2.345-1.312 7.456 1.8 10.5a7.29 7.29 0 0 0 6.642 2.194 3.907 3.907 0 0 0 2.862-2.862 5.1 5.1 0 0 0-2.108-5.505Z" fill="#90bd2d" opacity="1" data-original="#000000" class=""></path><path d="M47 18.33a2.985 2.985 0 0 0-1.335-2.488l-14-9.34a3.006 3.006 0 0 0-3.332 0L25.557 8.36A14.193 14.193 0 0 0 30 9a4.962 4.962 0 0 1 4.977 4.577A2.632 2.632 0 0 1 35 14a4.987 4.987 0 0 1-9.953.46 15.285 15.285 0 0 1-5.3-2.234l-5.409 3.615A2.986 2.986 0 0 0 13 18.33V55a3 3 0 0 0 3 3h28a3 3 0 0 0 3-3ZM41.172 45a12.814 12.814 0 0 1-8.884 4.012A8.536 8.536 0 0 1 28.21 48a6.1 6.1 0 0 1-1.749.769 7.115 7.115 0 0 1-1.81.227 9.872 9.872 0 0 1-6.739-2.928c-3.844-3.768-3.067-9.585-2.263-12.717a1.789 1.789 0 0 1 1.28-1.286 1.865 1.865 0 0 1 1.813.471 8.479 8.479 0 0 0 4.692 2.428 18.7 18.7 0 0 1 2.038.595 10.63 10.63 0 0 1 2.581-2.836 15.094 15.094 0 0 1 5.942-2.586 11.819 11.819 0 0 0 6.523-3.482 2.143 2.143 0 0 1 2.1-.585 2.119 2.119 0 0 1 1.515 1.539C45.2 31.9 46.234 39.876 41.172 45Z" fill="#90bd2d" opacity="1" data-original="#000000" class=""></path><path d="M27.127 14.816a2.981 2.981 0 0 0 5.746 0A24.182 24.182 0 0 1 30 15a23.849 23.849 0 0 1-2.873-.184ZM30 11c-9.148 0-11.418-5.761-11.969-8.238a1.008 1.008 0 0 0-1-.762 1.047 1.047 0 0 0-.822.389.927.927 0 0 0-.189.794C16.837 6.849 19.735 13 30 13a21.977 21.977 0 0 0 2.735-.182A2.952 2.952 0 0 0 30 11Z" fill="#90bd2d" opacity="1" data-original="#000000" class=""></path></g></svg>