<svg xmlns="http://www.w3.org/2000/svg" version="1.1" xmlns:xlink="http://www.w3.org/1999/xlink" width="512" height="512" x="0" y="0" viewBox="0 0 512 512" style="enable-background:new 0 0 512 512" xml:space="preserve" class=""><g><path fill-rule="evenodd" d="M286.747 189.452c.951-22.696 2.875-56.687 5.065-83.954 2.117-26.349 4.52-48.385 7.213-64.649 1.585-9.573 3.269-17.163 5.162-22.831C307.971 6.692 312.457 0 323.765 0s15.794 6.692 19.577 18.017c1.893 5.668 3.577 13.258 5.162 22.831 2.693 16.265 5.096 38.3 7.213 64.649 2.19 27.267 4.115 61.258 5.065 83.954 19.18 12.171 47.655 30.833 70.173 46.364 21.761 15.008 39.642 28.107 52.382 38.571 7.498 6.159 13.23 11.412 17.191 15.886 7.916 8.939 11.469 16.17 5.815 25.963s-13.692 10.332-25.392 7.946c-5.855-1.194-13.27-3.531-22.353-6.945-15.432-5.8-35.717-14.737-59.594-26.078-24.709-11.736-55.109-27.065-75.239-37.59-20.13 10.525-50.53 25.854-75.239 37.59-23.878 11.341-44.162 20.278-59.594 26.078-9.083 3.414-16.498 5.751-22.353 6.945-11.7 2.386-19.738 1.847-25.392-7.946s-2.102-17.024 5.815-25.963c3.962-4.473 9.693-9.727 17.191-15.886 12.739-10.465 30.621-23.563 52.382-38.571 22.518-15.53 50.993-34.192 70.172-46.363zm37.018 43.96c12.475 0 22.588-10.113 22.588-22.588s-10.113-22.588-22.588-22.588-22.588 10.113-22.588 22.588 10.113 22.588 22.588 22.588zM82.824 419.952v61.93h105.412v-51.891l-33.271 11.091a7.53 7.53 0 0 1-9.524-4.762l-4.762-14.286a7.53 7.53 0 0 1 4.762-9.524l98.655-32.885a7.53 7.53 0 0 1 9.524 4.762l4.762 14.286a7.53 7.53 0 0 1-4.762 9.524l-35.266 11.755v61.93h61.176l12.511-186.812a2632.91 2632.91 0 0 0 31.726-16.056 2596.628 2596.628 0 0 0 31.726 16.056l12.511 186.812h136.47a7.53 7.53 0 0 1 7.529 7.529v15.059a7.53 7.53 0 0 1-7.529 7.529H7.529A7.528 7.528 0 0 1 0 504.471v-15.059a7.53 7.53 0 0 1 7.529-7.529h45.176v-51.891l-33.271 11.091a7.53 7.53 0 0 1-9.524-4.762l-4.762-14.286a7.53 7.53 0 0 1 4.762-9.524l98.655-32.885a7.53 7.53 0 0 1 9.524 4.762l4.762 14.286a7.53 7.53 0 0 1-4.762 9.524z" clip-rule="evenodd" fill="#90bd2d" opacity="1" data-original="#000000"></path></g></svg>