<svg xmlns="http://www.w3.org/2000/svg" version="1.1" xmlns:xlink="http://www.w3.org/1999/xlink" width="512" height="512" x="0" y="0" viewBox="0 0 512 512" style="enable-background:new 0 0 512 512" xml:space="preserve" class=""><g><path fill-rule="evenodd" d="M136.121 105.976h66.7c3.664 0 6.662 2.998 6.662 6.662v47.329H129.46v-47.329c0-3.664 2.997-6.662 6.661-6.662zm347.668 42.169c8.684 0 14.492 8.795 11.345 16.71l-10.606 34.385C491.919 231.362 496 266.553 496 303.453s-4.083 72.086-11.474 104.206l10.608 34.393c3.147 7.915-2.661 16.71-11.345 16.71H268.136c-8.684 0-14.492-8.794-11.345-16.71l10.608-34.393c-7.391-32.12-11.474-67.306-11.474-104.206 0-36.901 4.08-72.091 11.471-104.213l-10.606-34.385c-3.147-7.915 2.661-16.71 11.345-16.71zM315.992 415.659h119.94a8 8 0 0 0 0-16h-119.94a8 8 0 0 0 0 16zm99.939-55.507h-79.938a8 8 0 0 0 0 16h79.938a8 8 0 0 0 0-16zM315.992 207.24h119.94a8 8 0 0 0 0-16h-119.94a8 8 0 0 0 0 16zm99.939 23.507h-79.938a8 8 0 0 0 0 16h79.938a8 8 0 0 0 0-16zM140.374 370.789c24.293 0 43.986 19.693 43.986 43.986s-19.693 43.986-43.986 43.986-43.986-19.693-43.986-43.986 19.693-43.986 43.986-43.986zm0 26.077c-9.891 0-17.909 8.018-17.909 17.909s8.018 17.909 17.909 17.909 17.909-8.018 17.909-17.909-8.018-17.909-17.909-17.909zm108.086 17.909 2.394-7.762c-7.453-33.92-10.929-68.86-10.929-103.56 0-25.67 1.902-51.471 5.908-76.894H33.655L77.34 368.19c2.191 7.103 5.452 13.603 9.576 19.35 9.925-19.438 30.139-32.751 53.458-32.751 33.124 0 59.986 26.862 59.986 59.986zM22 175.967h221.475l7.377 23.919a448.588 448.588 0 0 0-2.207 10.673H22c-3.3 0-6-2.7-6-6v-22.593c0-3.299 2.7-5.999 6-5.999zm203.482-48.864v32.864h14.435c.216-14.741 12.201-27.822 28.219-27.822h13.226c-.728-2.888-3.355-5.042-6.461-5.042zm-186.141-1.478 57.764-33.35c3.173-1.832 7.268-.735 9.1 2.439l7.718 13.368a22.524 22.524 0 0 0-.463 4.556v47.329H51.477l-14.574-25.242c-1.832-3.173-.735-7.268 2.438-9.1zm124.275-35.649h39.205c11.948 0 21.812 9.371 22.608 21.127h18.21V59.901c0-3.664-2.998-6.662-6.662-6.662h-66.7c-3.664 0-6.662 2.998-6.662 6.662v30.075z" clip-rule="evenodd" fill="#90bd2d" opacity="1" data-original="#000000" class=""></path></g></svg>