<svg xmlns="http://www.w3.org/2000/svg" version="1.1" xmlns:xlink="http://www.w3.org/1999/xlink" width="512" height="512" x="0" y="0" viewBox="0 0 64 64" style="enable-background:new 0 0 512 512" xml:space="preserve" class=""><g><g data-name="Trash Bin"><path d="M13.03 39.45 9.58 36H6a1 1 0 0 1 0-2h1.58l-2.65-2.65a1.004 1.004 0 0 1 1.42-1.42l4.36 4.36 2.02 2.02-.91-9.57A15.986 15.986 0 0 0 7 26H4a3.009 3.009 0 0 0-3 3v3a16.024 16.024 0 0 0 12.81 15.68Z" fill="#90bd2d" opacity="1" data-original="#000000" class=""></path><rect width="42" height="8" x="11" y="12" rx="2" ry="2" fill="#90bd2d" opacity="1" data-original="#000000" class=""></rect><path d="M48.38 7.18A3.018 3.018 0 0 0 45.49 5H18.51a3.018 3.018 0 0 0-2.89 2.18l-.8 2.82h34.36ZM38 2a2.006 2.006 0 0 0-2-2h-8a2.006 2.006 0 0 0-2 2v1h12Z" fill="#90bd2d" opacity="1" data-original="#000000" class=""></path><circle cx="18" cy="58" r="1" fill="#90bd2d" opacity="1" data-original="#000000" class=""></circle><path d="M18 52a6 6 0 1 0 6 6 6.007 6.007 0 0 0-6-6Zm0 9a3 3 0 1 1 3-3 3.003 3.003 0 0 1-3 3Z" fill="#90bd2d" opacity="1" data-original="#000000" class=""></path><path d="M48.72 42.03 50.63 22H13.37l2.69 28.24A7.754 7.754 0 0 1 18 50a8.01 8.01 0 0 1 8 8 7.903 7.903 0 0 1-.59 3H39v-3a17.973 17.973 0 0 1 9.72-15.97ZM29.13 30.07l2-3.56a1.037 1.037 0 0 1 1.74 0l3.95 7.01.24-.68a.996.996 0 1 1 1.88.66l-1 2.83A.997.997 0 0 1 37 37a.96.96 0 0 1-.33-.06l-2.83-1a.996.996 0 1 1 .66-1.88l.4.14-2.9-5.16-1.13 2.01a.998.998 0 0 1-1.74-.98Zm.2 7.7a.96.96 0 0 1-.33.06.997.997 0 0 1-.94-.67l-.24-.68L24.71 42H27a1 1 0 0 1 0 2h-4a.987.987 0 0 1-.86-.5.975.975 0 0 1-.01-.99l3.77-6.71-.4.14a.996.996 0 1 1-.66-1.88l2.83-1a.988.988 0 0 1 1.27.61l1 2.83a.988.988 0 0 1-.61 1.27Zm12.53 5.73a.987.987 0 0 1-.86.5h-7.59l.3.29a1.008 1.008 0 0 1 0 1.42 1.014 1.014 0 0 1-1.42 0l-2-2a1.033 1.033 0 0 1-.21-.33 1 1 0 0 1 0-.76 1.033 1.033 0 0 1 .21-.33l2-2a1.004 1.004 0 0 1 1.42 1.42l-.3.29h5.88l-.85-1.51a.998.998 0 1 1 1.74-.98l1.69 3a.975.975 0 0 1-.01.99Z" fill="#90bd2d" opacity="1" data-original="#000000" class=""></path><path d="M61 42h-4a16.018 16.018 0 0 0-16 16v4.586l4.293-4.293L49 54.586V49a1 1 0 0 1 2 0v3.586l3.293-3.293a1 1 0 0 1 1.414 1.414l-5 5L48.414 58H51a1 1 0 0 1 0 2h-4.586l-4 4H47a16.018 16.018 0 0 0 16-16v-4a2.002 2.002 0 0 0-2-2Z" fill="#90bd2d" opacity="1" data-original="#000000" class=""></path></g></g></svg>