<svg xmlns="http://www.w3.org/2000/svg" version="1.1" xmlns:xlink="http://www.w3.org/1999/xlink" width="512" height="512" x="0" y="0" viewBox="0 0 24 24" style="enable-background:new 0 0 512 512" xml:space="preserve" class=""><g><path d="M16.67 10.87c.01-.12.02-.24.02-.37s-.01-.25-.02-.37l.83-.61c.5-.37.65-1.06.34-1.6L17.1 6.6c-.31-.56-.99-.78-1.56-.51l-.92.43a4.76 4.76 0 0 0-.57-.34l-.1-1.07C13.89 4.48 13.37 4 12.74 4h-1.48c-.63 0-1.15.48-1.21 1.11l-.1 1.07c-.2.1-.38.21-.57.34l-.92-.43c-.57-.27-1.25-.04-1.56.51l-.74 1.32c-.31.54-.16 1.23.34 1.6l.83.61c-.01.12-.02.24-.02.37s.01.25.02.37l-.83.61c-.5.37-.65 1.06-.34 1.6l.74 1.32c.31.55.99.78 1.56.51l.92-.43c.19.13.37.24.57.34l.1 1.07c.06.63.58 1.11 1.21 1.11h1.48c.63 0 1.15-.48 1.21-1.11l.1-1.07c.2-.1.38-.21.57-.34l.92.43c.57.27 1.25.05 1.56-.51l.74-1.32c.31-.54.16-1.23-.34-1.6zm-2.17-.37a2.5 2.5 0 0 1-5 0 2.5 2.5 0 0 1 5 0zM21 18H3c-1.654 0-3 1.346-3 3s1.346 3 3 3h18c1.654 0 3-1.346 3-3s-1.346-3-3-3zM4 22c-.551 0-1-.449-1-1s.449-1 1-1 1 .449 1 1-.449 1-1 1zm5 0c-.551 0-1-.449-1-1s.449-1 1-1 1 .449 1 1-.449 1-1 1zm6 0c-.551 0-1-.449-1-1s.449-1 1-1 1 .449 1 1-.449 1-1 1zm5 0c-.551 0-1-.449-1-1s.449-1 1-1 1 .449 1 1-.449 1-1 1z" fill="#90bd2d" opacity="1" data-original="#000000" class=""></path></g></svg>