<svg xmlns="http://www.w3.org/2000/svg" version="1.1" xmlns:xlink="http://www.w3.org/1999/xlink" width="512" height="512" x="0" y="0" viewBox="0 0 16.933 16.933" style="enable-background:new 0 0 512 512" xml:space="preserve" class=""><g><path d="M8.468.529a7.912 7.912 0 0 0-3.278.705.265.265 0 0 0-.129.36l.475.947a.265.265 0 0 0 .344.125 6.333 6.333 0 0 1 2.588-.55c3.51 0 6.35 2.84 6.35 6.35 0 1.317-.436 2.517-1.122 3.532l-.808-.809a.265.265 0 0 0-.452.188v2.91c0 .146.118.265.264.265h2.91a.265.265 0 0 0 .187-.453l-.958-.959c.965-1.314 1.566-2.919 1.566-4.674A7.942 7.942 0 0 0 8.468.53zM1.323 2.38a.265.265 0 0 0-.188.452l.96.96C1.128 5.108.53 6.713.53 8.467A7.942 7.942 0 0 0 11.743 15.7a.265.265 0 0 0 .129-.36l-.475-.949a.265.265 0 0 0-.343-.123 6.323 6.323 0 0 1-2.586.549 6.347 6.347 0 0 1-6.352-6.35c0-1.317.435-2.516 1.121-3.53l.809.808c.166.17.455.05.453-.188v-2.91a.265.265 0 0 0-.266-.266zm6.932 1.954s-.672.889-1.344 2.004c-.673 1.115-1.365 2.427-1.365 3.445a2.926 2.926 0 0 0 2.922 2.922c1.61 0 2.92-1.312 2.92-2.922 0-1.018-.694-2.33-1.366-3.445C9.35 5.223 8.68 4.334 8.68 4.334a.27.27 0 0 0-.219-.106.272.272 0 0 0-.205.106zm1.797 5.29c.149-.002.27.12.267.27 0 .967-.775 1.742-1.742 1.742-.361.008-.361-.537 0-.529.69 0 1.213-.522 1.213-1.213a.265.265 0 0 1 .26-.27h.002z" fill="#90bd2d" opacity="1" data-original="#000000" class=""></path></g></svg>